<svg xmlns="http://www.w3.org/2000/svg" width="256" height="256" fill="none" viewBox="0 0 256 256">
<!-- SVG created with Arrow, by QuiverAI (https://quiver.ai) -->
  <path d="m127.4 7c-1.29-0.39-2.03 0.81-2.47 1.68l-73.68 157.2c-0.85 1.8-0.1 4.25 2.38 3.68l38.94-13.28 5.61 44.34c0.11 0.84 0.39 1.65 0.84 2.37l26.6 45.89c1.21 1.9 2.92 1.23 3.65-0.23l27.87-46.8c0.45-0.72 0.73-1.53 0.84-2.37l5.37-43.2 38.15 13.41c2.68 0.96 3.29-2.11 2.18-4.06l-74.21-157c-0.37-0.79-1-1.42-2.07-1.68z" fill="url(#paint0_linear_2376_10475)"/>
  <path d="m127.6 8.79c-0.51-1.04-1.1-0.93-1.6 0.08l-73.19 156.6c-0.73 1.46-0.36 3.24 1.88 2.47l39.04-14.67 6.01 46.85c0.07 0.67 0.29 1.31 0.65 1.89l26.57 45.78c0.73 1.17 1.32 0.98 2.05-0.35l26.92-46.27c0.36-0.58 0.59-1.22 0.66-1.89l5.93-46.32 38.59 14.82c1.65 0.7 2.3-0.62 1.49-2.31l-75-156.6z" fill="url(#paint1_linear_2376_10475)" stroke="#303C46" stroke-miterlimit="10" stroke-width="2"/>
  <path d="m127.8 10.04 72.03 155.9-39.12-15.15-6.3 49.08-26.73 45.97-26.56-45.59-6.22-49-39.76 14.69 72.66-155.9z" fill="url(#paint2_linear_2376_10475)"/>
  <path d="m127.8 19.14 0.47 39.65 26.3 62.4 39.2 36.97-32.59-9.95-6.45-23.34-14.36 65.04 10.78 9.7-22.96 37.36-0.39-29.29-12.98-17.77-12.12-66.05 0.39-52.85 24.71-51.87z" fill="url(#paint3_linear_2376_10475)"/>
  <path d="m101.5 124.2-41.56 37.97 41.56-34.06 1.26-4.3-1.26 0.39z" fill="url(#paint4_linear_2376_10475)"/>
  <path d="m154.8 124.9 38.65 35.02-35.64-36.26-3.01-2.44v3.68z" fill="url(#paint5_linear_2376_10475)"/>
  <path d="m102.7 71.16-1.42 50.65-42.13 40.49 43.55-39.14v-52z" fill="url(#paint6_linear_2376_10475)"/>
  <path d="m155.4 73.21-0.65 47.98 39.04 36.97-38.39-84.95z" fill="url(#paint7_linear_2376_10475)"/>
  <path d="m127.8 58.79-24.71 63.87 11.73 67.25 12.86 17.77 12.2-17.77 12.43-66.05-24.51-65.07z" fill="url(#paint8_linear_2376_10475)"/>
  <path d="m127 60.76 1.12 2.21 0.55 142.5-1.44 2.21-0.23-146.9z" fill="url(#paint9_linear_2376_10475)"/>
  <path d="m103.4 200.1 11.65-9.78-0.89-1.13-11.46 9.86 0.7 1.05z" fill="url(#paint10_linear_2376_10475)"/>
  <path d="m141.3 190 10.7 9.27 0.66-0.93-10.31-9.54-1.05 1.2z" fill="url(#paint11_linear_2376_10475)"/>
  <path d="m103.1 87.08 8.62 9.46 1.44-3.27-10.06-11.83v5.64z" fill="url(#paint12_linear_2376_10475)"/>
  <path d="m128.5 106.4 21.45 23.56 1.73-6.25-23.18-50.5v33.19z" fill="url(#paint13_linear_2376_10475)"/>
  <defs>
    <linearGradient id="paint0_linear_2376_10475" x1="127.6" x2="127.6" y1="7" y2="250.2" gradientUnits="userSpaceOnUse">
      <stop stop-color="#47545E" offset="0"/>
      <stop stop-color="#2F3B42" offset="1"/>
    </linearGradient>
    <linearGradient id="paint1_linear_2376_10475" x1="127.6" x2="127.6" y1="8.006" y2="248.7" gradientUnits="userSpaceOnUse">
      <stop stop-color="#485660" offset="0"/>
      <stop stop-color="#303C46" offset="1"/>
    </linearGradient>
    <linearGradient id="paint2_linear_2376_10475" x1="127.5" x2="127.5" y1="10.04" y2="245.8" gradientUnits="userSpaceOnUse">
      <stop stop-color="#F6FFFE" offset="0"/>
      <stop stop-color="#F6FFFE" offset="1"/>
    </linearGradient>
    <linearGradient id="paint3_linear_2376_10475" x1="126.5" x2="126.5" y1="19.14" y2="237" gradientUnits="userSpaceOnUse">
      <stop stop-color="#B4C2CC" offset="0"/>
      <stop stop-color="#F1F7FC" offset=".47"/>
      <stop stop-color="#D9E2E9" offset=".78"/>
      <stop stop-color="#A9B5BD" offset="1"/>
    </linearGradient>
    <linearGradient id="paint4_linear_2376_10475" x1="80.73" x2="80.73" y1="122.7" y2="162.3" gradientUnits="userSpaceOnUse">
      <stop stop-color="#B4C2CC" offset="0"/>
      <stop stop-color="#A9B5BD" offset="1"/>
    </linearGradient>
    <linearGradient id="paint5_linear_2376_10475" x1="174.1" x2="174.1" y1="121.2" y2="159.9" gradientUnits="userSpaceOnUse">
      <stop stop-color="#B4C2CC" offset="0"/>
      <stop stop-color="#A9B5BD" offset="1"/>
    </linearGradient>
    <linearGradient id="paint6_linear_2376_10475" x1="80.96" x2="80.96" y1="71.16" y2="162.3" gradientUnits="userSpaceOnUse">
      <stop stop-color="#F6FFFE" offset="0"/>
      <stop stop-color="#B4C2CC" offset="1"/>
    </linearGradient>
    <linearGradient id="paint7_linear_2376_10475" x1="174.3" x2="174.3" y1="73.21" y2="158.2" gradientUnits="userSpaceOnUse">
      <stop stop-color="#F6FFFE" offset="0"/>
      <stop stop-color="#B4C2CC" offset="1"/>
    </linearGradient>
    <linearGradient id="paint8_linear_2376_10475" x1="127.7" x2="127.7" y1="58.79" y2="207.7" gradientUnits="userSpaceOnUse">
      <stop stop-color="#B4C2CC" offset="0"/>
      <stop stop-color="#F1F7FC" offset=".52"/>
      <stop stop-color="#E7EEF3" offset=".84"/>
      <stop stop-color="#D8E2E8" offset="1"/>
    </linearGradient>
    <linearGradient id="paint9_linear_2376_10475" x1="127.8" x2="127.8" y1="60.76" y2="207.7" gradientUnits="userSpaceOnUse">
      <stop stop-color="#F6FFFE" offset="0"/>
      <stop stop-color="#F6FFFE" offset="1"/>
    </linearGradient>
    <linearGradient id="paint10_linear_2376_10475" x1="108.8" x2="108.8" y1="189.2" y2="200.1" gradientUnits="userSpaceOnUse">
      <stop stop-color="#B4C2CC" offset="0"/>
      <stop stop-color="#A9B5BD" offset="1"/>
    </linearGradient>
    <linearGradient id="paint11_linear_2376_10475" x1="146.9" x2="146.9" y1="188.8" y2="199.3" gradientUnits="userSpaceOnUse">
      <stop stop-color="#B4C2CC" offset="0"/>
      <stop stop-color="#A9B5BD" offset="1"/>
    </linearGradient>
    <linearGradient id="paint12_linear_2376_10475" x1="108.2" x2="108.2" y1="81.44" y2="96.54" gradientUnits="userSpaceOnUse">
      <stop stop-color="#F6FFFE" offset="0"/>
      <stop stop-color="#D9E1E8" offset="1"/>
    </linearGradient>
    <linearGradient id="paint13_linear_2376_10475" x1="140" x2="140" y1="73.21" y2="130" gradientUnits="userSpaceOnUse">
      <stop stop-color="#B4C2CC" offset="0"/>
      <stop stop-color="#A9B5BD" offset="1"/>
    </linearGradient>
  </defs>
</svg>