<svg xmlns="http://www.w3.org/2000/svg" width="207" height="207" fill="none" viewBox="0 0 207 207">
<!-- SVG created with Arrow, by QuiverAI (https://quiver.ai) -->
  <path d="m165.5 5-72.22 38.2-17.75 26.98-6.8-4.15-20.51 20.42-7.41 115.9 84.28-53.6 3.89-15.96 26.84-30.03 9.68-97.72z" fill="#222B33"/>
  <path d="m163.6 7.41-68.8 37.62-19.29 27.95-6.6-4.25-19.3 18.78-6.9 111.6 81-52.03 4.09-15.4 26.55-29.73 9.25-94.55z" fill="#FDFEFF"/>
  <path d="m127.5 30.11-32.7 15.61-21.74 56.74 45.39-45.7 9.05-26.65z" fill="url(#paint0_linear_120_3138)"/>
  <path d="m69.82 70.38 3.15 32.08 2.65-29.58-5.8-2.5z" fill="#D9DCE1"/>
  <path d="m51.02 88.11-7 108 20.4-69.99-13.4-38.02z" fill="url(#paint1_linear_120_3138)"/>
  <path d="m120.8 57.76 39.85-44.75-17.4 82.66-22.6 8.29 0.15-46.2z" fill="url(#paint2_linear_120_3138)"/>
  <path d="m160.6 13.01-7.5 88.66-32.5 2.29 30.3-11.89 9.7-79.06z" fill="url(#paint3_linear_120_3138)"/>
  <path d="m127.2 132.2 25.95-30.52-32.5 2.29 6.55 28.23z" fill="url(#paint4_linear_120_3138)"/>
  <path d="m120.6 104 11.1-23.25 4.1 6 7.4 8.96-22.6 8.29z" fill="url(#paint5_linear_120_3138)"/>
  <path d="m123.7 145.8 3.34-13.6-6.45-28.23 0.55 42.13-77.14 50.03 79.7-49.03v-1.3z" fill="url(#paint6_linear_120_3138)"/>
  <path d="m46.02 193.8 33-42.23-5.25-48.38-27.75 90.61z" fill="url(#paint7_linear_120_3138)"/>
  <path d="m73.77 103.2 45.44-45.9 1.4 46.65-41.59 47.63-5.25-48.38z" fill="url(#paint8_linear_120_3138)"/>
  <path d="m120.6 104-0.5 41.63-30 20.6 30.5-62.23z" fill="url(#paint9_linear_120_3138)"/>
  <path d="m79.02 151.6 41.59-47.63-0.6 23.75-38.79 23.18-2.2 0.7z" fill="url(#paint10_linear_120_3138)"/>
  <path d="m97.21 145.9-25.74 29.89 5-2.4 20.74-27.49z" fill="url(#paint11_linear_120_3138)"/>
  <path d="m64.42 126.1-15.3 11 5 10.86 10.3-21.86z" fill="url(#paint12_linear_120_3138)"/>
  <path d="m94.11 134.7 7.6-0.15 1.4 4.1 13.8-7.3-0.75-0.9-8.05 2.5-10.8 1.4-3.2 0.35z" fill="url(#paint13_linear_120_3138)"/>
  <path d="m127.2 76.11 7.55-16.2 1.05 4.2-6.05 10.6-2.55 1.4z" fill="url(#paint14_linear_120_3138)"/>
  <path d="m144.1 58.76 6.95-10.35 1.7 2.8-1.25 11.45-7.4-3.9z" fill="url(#paint15_linear_120_3138)"/>
  <path d="m132 102.5 6.6-5.94 4.1 1.3-3.9 6.14-6.8-1.5z" fill="url(#paint16_linear_120_3138)"/>
  <path d="m58.07 149.5 8.2-6.3 1.4 8.95-6.95 1.7-2.65-4.35z" fill="url(#paint17_linear_120_3138)"/>
  <path d="m94.81 45.72 28.91-8.4-5.26 19.44-31.74 16.3 8.09-27.34z" fill="url(#paint18_linear_120_3138)"/>
  <defs>
    <linearGradient id="paint0_linear_120_3138" x1="105.1" x2="100.4" y1="31.47" y2="71.41" gradientUnits="userSpaceOnUse">
      <stop stop-color="#F1F2F6" offset="0"/>
      <stop stop-color="#E5E8ED" offset="1"/>
    </linearGradient>
    <linearGradient id="paint1_linear_120_3138" x1="50.17" x2="56.42" y1="92.76" y2="152.4" gradientUnits="userSpaceOnUse">
      <stop stop-color="#F1F2F6" offset="0"/>
      <stop stop-color="#D9DBE0" offset="1"/>
    </linearGradient>
    <linearGradient id="paint2_linear_120_3138" x1="140.6" x2="140.6" y1="22.01" y2="98.47" gradientUnits="userSpaceOnUse">
      <stop stop-color="#D0D3D8" offset="0"/>
      <stop stop-color="#C6CCD4" offset="1"/>
    </linearGradient>
    <linearGradient id="paint3_linear_120_3138" x1="144.1" x2="148" y1="28.96" y2="93.17" gradientUnits="userSpaceOnUse">
      <stop stop-color="#D7DAE0" offset="0"/>
      <stop stop-color="#F5F9FE" offset="1"/>
    </linearGradient>
    <linearGradient id="paint4_linear_120_3138" x1="134.8" x2="139.2" y1="101.8" y2="109.3" gradientUnits="userSpaceOnUse">
      <stop stop-color="#CED7E2" offset="0"/>
      <stop stop-color="#D9E6F5" offset="1"/>
    </linearGradient>
    <linearGradient id="paint5_linear_120_3138" x1="130.8" x2="135.7" y1="80.21" y2="94.21" gradientUnits="userSpaceOnUse">
      <stop stop-color="#BFC5CC" offset="0"/>
      <stop stop-color="#B6BDC6" offset="1"/>
    </linearGradient>
    <linearGradient id="paint6_linear_120_3138" x1="82.87" x2="82.87" y1="107.3" y2="176.5" gradientUnits="userSpaceOnUse">
      <stop stop-color="#F1F2F6" offset="0"/>
      <stop stop-color="#D9DBE0" offset="1"/>
    </linearGradient>
    <linearGradient id="paint7_linear_120_3138" x1="62.52" x2="62.52" y1="109.6" y2="187.1" gradientUnits="userSpaceOnUse">
      <stop stop-color="#F1F2F6" offset="0"/>
      <stop stop-color="#A9B6C1" offset="1"/>
    </linearGradient>
    <linearGradient id="paint8_linear_120_3138" x1="97.19" x2="97.19" y1="63.31" y2="139" gradientUnits="userSpaceOnUse">
      <stop stop-color="#D4D8DF" offset="0"/>
      <stop stop-color="#E0E3E8" offset="1"/>
    </linearGradient>
    <linearGradient id="paint9_linear_120_3138" x1="108.6" x2="108.6" y1="104" y2="149.7" gradientUnits="userSpaceOnUse">
      <stop stop-color="#A6B0BC" offset="0"/>
      <stop stop-color="#E8EEF4" offset="1"/>
    </linearGradient>
    <linearGradient id="paint10_linear_120_3138" x1="101.1" x2="100.9" y1="108.1" y2="134.1" gradientUnits="userSpaceOnUse">
      <stop stop-color="#979FB0" offset="0"/>
      <stop stop-color="#E2EAF3" offset="1"/>
    </linearGradient>
    <linearGradient id="paint11_linear_120_3138" x1="82.22" x2="85.77" y1="162.9" y2="160.2" gradientUnits="userSpaceOnUse">
      <stop stop-color="#FEFFFE" offset="0"/>
      <stop stop-color="#F1F9FE" offset=".2344"/>
      <stop stop-color="#D3E7F1" offset=".4427"/>
      <stop stop-color="#E0F1FF" offset=".6823"/>
      <stop stop-color="#FEFFFE" offset="1"/>
    </linearGradient>
    <linearGradient id="paint12_linear_120_3138" x1="55.22" x2="59.77" y1="130.1" y2="137.3" gradientUnits="userSpaceOnUse">
      <stop stop-color="#F1F2F6" offset="0"/>
      <stop stop-color="#F1F2F6" stop-opacity=".25" offset="1"/>
    </linearGradient>
    <linearGradient id="paint13_linear_120_3138" x1="103" x2="106.1" y1="131" y2="137.1" gradientUnits="userSpaceOnUse">
      <stop stop-color="#F1D7C2" offset="0"/>
      <stop stop-color="#FDFEFF" offset=".25"/>
      <stop stop-color="#D3E7F1" offset=".5729"/>
      <stop stop-color="#F1F2F6" offset=".8021"/>
      <stop stop-color="#D9E6F5" offset="1"/>
    </linearGradient>
    <linearGradient id="paint14_linear_120_3138" x1="131.9" x2="134" y1="62.11" y2="68.76" gradientUnits="userSpaceOnUse">
      <stop stop-color="#F1F2F6" offset="0"/>
      <stop stop-color="#FDFEFF" offset=".5208"/>
      <stop stop-color="#F1F2F6" stop-opacity=".25" offset="1"/>
    </linearGradient>
    <linearGradient id="paint15_linear_120_3138" x1="149.2" x2="150" y1="49.46" y2="58.41" gradientUnits="userSpaceOnUse">
      <stop stop-color="#F1F2F6" offset="0"/>
      <stop stop-color="#FDFEFF" offset=".5208"/>
      <stop stop-color="#F1F2F6" stop-opacity=".25" offset="1"/>
    </linearGradient>
    <linearGradient id="paint16_linear_120_3138" x1="136.9" x2="139" y1="96.96" y2="101.6" gradientUnits="userSpaceOnUse">
      <stop stop-color="#FEFFFE" offset="0"/>
      <stop stop-color="#F1F9FE" offset=".2344"/>
      <stop stop-color="#D3E7F1" offset=".4427"/>
      <stop stop-color="#E0F1FF" offset=".6823"/>
      <stop stop-color="#FEFFFE" offset="1"/>
    </linearGradient>
    <linearGradient id="paint17_linear_120_3138" x1="62.57" x2="65.07" y1="145.2" y2="150.2" gradientUnits="userSpaceOnUse">
      <stop stop-color="#F1D7C2" offset="0"/>
      <stop stop-color="#FDFEFF" offset=".25"/>
      <stop stop-color="#D3E7F1" offset=".5729"/>
      <stop stop-color="#F1F2F6" offset=".8021"/>
      <stop stop-color="#D9E6F5" offset="1"/>
    </linearGradient>
    <linearGradient id="paint18_linear_120_3138" x1="106.7" x2="109" y1="37.32" y2="58.26" gradientUnits="userSpaceOnUse">
      <stop stop-color="#F1F2F6" offset="0"/>
      <stop stop-color="#E5E8ED" stop-opacity=".56" offset="1"/>
    </linearGradient>
  </defs>
</svg>