<svg xmlns="http://www.w3.org/2000/svg" viewBox="0 0 150 150">
  <style type="text/css">.cls-0 {fill:#E6E9EF;}</style>
  <polygon class="cls-0" points="56.4 63.7 69.5 34.8 113.7 32.3 133.5 51 122.3 74.9 130.2 88.3 147.6 48 119.6 20.8 62.4 20.9 42.4 63.7"/>
  <polygon class="cls-0" points="60.6 63.7 68.9 57.7 95.6 57.7 108.9 63.6"/>
  <polygon class="cls-0" points="47.9 67 109.2 88.8 114.3 97.6 138 109.5 114.2 66.9"/>
  <path class="cls-0" d="m140.4 114.6-94.1-45.1-2.9 6 43.7 41.8-23.6 0.1-20.8-40.3-24.2 51.9 129.7-0.1-7.8-14.3z"/>
  <path class="cls-0" d="m14.2 63-12.1 5.5 1.4 2.1 23.1 32.4 13.9-29.1-26.3-10.9zm14.7 22.3-17.3-19.9 24.4 10.3-7.1 9.6z"/>
</svg>
